<svg xmlns="http://www.w3.org/2000/svg" xmlns:xlink="http://www.w3.org/1999/xlink" width="115" height="70" viewBox="0 0 115 70"><defs><path id="eabe003wha" d="M0.09 0.077L5.848 0.077 5.848 8.846 0.09 8.846z"></path><path id="gotb4uvgkc" d="M0.01 0.077L27.818 0.077 27.818 5.435 0.01 5.435z"></path></defs><g fill="none" fill-rule="evenodd"><g><g><path fill="#0B0754" d="M38.666 9L38.666 3.576 36.639 7.651 36.361 7.651 34.334 3.576 34.334 9 33 9 33 0 34.146 0 36.5 4.736 38.854 0 40 0 40 9z" transform="translate(-53 -19) translate(53 19)"></path><g><g transform="translate(-53 -19) translate(53 19) translate(43.001)"><mask id="ljrwpuypyb" fill="#fff"><use xlink:href="#eabe003wha"></use></mask><path fill="#0B0754" d="M4.398 3.388c0-1.267-.647-1.876-1.436-1.876-.789 0-1.436.609-1.436 1.876v1.15h2.872v-1.15zM1.526 8.846H.09V3.388C.09 1.254 1.384.076 2.962.076c1.591 0 2.886 1.178 2.886 3.312v5.458h-1.45V5.975H1.526v2.871z" mask="url(#ljrwpuypyb)"></path></g><path fill="#0B0754" d="M53.157 7.41h.582c1.256 0 2.29-1.293 2.29-2.871 0-1.59-1.034-2.885-2.29-2.885h-.582V7.41zM51.721.22h2.018c2.135 0 3.882 1.926 3.882 4.319 0 2.38-1.747 4.307-3.882 4.307h-2.018V.219zM60.351.219L64.659.219 64.659 1.655 61.787 1.655 61.787 3.388 64.659 3.388 64.659 4.824 61.787 4.824 61.787 7.41 64.659 7.41 64.659 8.846 60.351 8.846zM73.289 1.654L71.853 1.654 71.853.219 76.161.219 76.161 1.654 74.726 1.654 74.726 7.41 76.161 7.41 76.161 8.846 71.853 8.846 71.853 7.41 73.289 7.41zM83.511.219L84.805.219 84.805 8.846 83.718 8.846 80.341 3.336 80.341 8.846 79.047 8.846 79.047.219 80.121.219 83.511 5.729zM7.236 17.815c2.467 0 4.186.665 5.822 2.495l-2.412 2.55c-.887-1.082-1.996-1.525-3.41-1.387-2.385.25-3.188 2.827-3.188 5.211 0 2.383.803 5.044 3.188 5.21 1.47.083 2.606-.443 3.41-1.663l2.412 2.827c-1.636 1.83-3.355 2.495-5.822 2.495C2.772 35.553 0 31.146 0 26.684s3.05-8.869 7.236-8.869M18.52 26.684c0 2.771.915 5.21 3.327 5.21 2.411 0 3.326-2.439 3.326-5.21 0-2.772-.915-5.21-3.326-5.21-2.412 0-3.328 2.438-3.328 5.21m3.328-8.869c4.49 0 7.374 4.38 7.374 8.869 0 4.49-2.883 8.869-7.374 8.869-4.492 0-7.375-4.38-7.375-8.87 0-4.489 2.883-8.868 7.375-8.868M41.309 34.998L35.598 25.575 35.598 34.998 31.606 34.998 31.606 18.37 35.598 18.37 41.309 27.792 41.309 18.37 45.301 18.37 45.301 34.998zM52.51 34.998L48.517 34.998 48.517 18.37 57.638 18.37 57.638 22.083 52.51 22.083 52.51 24.688 57.362 24.688 57.362 28.402 52.51 28.402zM64.043 31.284L69.865 31.284 69.865 34.998 60.051 34.998 60.051 18.37 64.043 18.37zM78.293 23.552l-1.497 4.933h2.994l-1.497-4.933zm-3.66 12l-3.992-.886 5.96-16.296h3.383l5.96 16.296-3.992.887-1.025-3.354h-5.268l-1.025 3.354zM97.423 34.998L91.712 25.575 91.712 34.998 87.719 34.998 87.719 18.37 91.712 18.37 97.423 27.792 97.423 18.37 101.415 18.37 101.415 34.998zM107.265 27.238c-1.608-.86-3.188-2.217-3.188-4.656 0-2.772 3.05-4.767 5.545-4.767 1.996 0 3.41.555 4.713 1.94l-2.218 2.633c-.693-.693-1.303-1.025-2.218-1.025-.998 0-1.94.277-1.94 1.22 0 .941 1.025 1.468 2.078 2.022l1.525.832c1.969 1.053 3.327 2.66 3.327 4.85 0 2.993-2.828 5.266-5.822 5.266-1.857 0-3.88-.555-5.267-2.356l2.356-2.91c.693.97 1.803 1.663 2.911 1.663.943 0 1.941-.582 1.941-1.663 0-.97-.97-1.524-2.218-2.217l-1.525-.832zM62.736 58.487H54.02c-.905 0-1.639-.598-1.653-1.336l.955-10.767h1.61v1.46c0 .268.214.482.481.482s.481-.214.481-.481v-1.46h4.963v1.46c0 .267.214.48.481.48s.481-.213.481-.48v-1.46h1.61l.959 10.766c-.014.738-.752 1.336-1.653 1.336m-4.358-15.493c1.35 0 2.452 1.082 2.48 2.425h-4.96c.03-1.343 1.13-2.425 2.48-2.425m6.97 14.093l-.998-11.23c-.022-.249-.232-.438-.478-.438H61.82c-.028-1.873-1.56-3.387-3.442-3.387-1.88 0-3.413 1.514-3.441 3.387h-2.053c-.249 0-.456.189-.477.438l-.998 11.23c0 .015-.003.029-.003.043 0 1.279 1.172 2.319 2.615 2.319h8.715c1.443 0 2.615-1.04 2.615-2.319 0-.014 0-.028-.004-.043" transform="translate(-53 -19) translate(53 19)"></path><path fill="#0B0754" d="M74.28 57.896c.103.032.2.083.288.156.355.293.404.818.11 1.172-2.545 3.072-5.912 5.323-9.736 6.508-3.92 1.214-8.074 1.222-12.015.022-4.846-1.475-8.955-4.674-11.57-9.007-.237-.394-.11-.905.283-1.143.394-.237.906-.11 1.143.283 2.402 3.98 6.177 6.92 10.63 8.275 3.62 1.102 7.436 1.095 11.036-.02 3.514-1.09 6.608-3.157 8.947-5.98.22-.267.573-.36.884-.266" transform="translate(-53 -19) translate(53 19)"></path><g transform="translate(-53 -19) translate(53 19) translate(45.143 63.74)"><mask id="iu2hiy8rdd" fill="#fff"><use xlink:href="#gotb4uvgkc"></use></mask><path fill="#0B0754" d="M27.644.154c.039.028.074.063.102.105.132.197.077.472-.123.614-4.058 2.885-8.786 4.46-13.673 4.557-4.993.1-9.753-1.368-13.766-4.243-.192-.138-.23-.412-.087-.612C.24.375.513.324.705.462 4.57 3.232 9.157 4.646 13.968 4.55c4.71-.094 9.266-1.612 13.176-4.391.157-.112.357-.108.5-.006" mask="url(#iu2hiy8rdd)"></path></g><path fill="#0B0754" d="M27.092 4.716c0 .703-.57 1.273-1.274 1.273-.704 0-1.274-.57-1.274-1.273 0-.704.57-1.274 1.274-1.274.704 0 1.274.57 1.274 1.274M92.26 4.716c0 .703-.57 1.273-1.274 1.273-.704 0-1.274-.57-1.274-1.273 0-.704.57-1.274 1.274-1.274.704 0 1.274.57 1.274 1.274" transform="translate(-53 -19) translate(53 19)"></path></g></g></g></g></svg>